<svg id="Layer_1" data-name="Layer 1" xmlns="http://www.w3.org/2000/svg" viewBox="0 0 500 200"><defs><style>.cls-1{fill:#001964;}.cls-2{fill:#00cfb9;}</style></defs><path class="cls-1" d="M180.8,104.2c-.45,5-3.86,8.09-8.87,8.09s-8.46-3.1-8.89-8.09a46.33,46.33,0,0,1,0-8.33v0c.42-5,3.83-8,8.89-8s8.42,3.12,8.87,8.14a43.82,43.82,0,0,1,0,8.26m7.83-9.09c-.85-8.92-7.57-14.92-16.7-14.92S156,86.25,155.21,95.25a53.47,53.47,0,0,0,0,9.8c.82,8.76,7.69,14.9,16.72,14.9s15.88-6.14,16.7-14.9a56.89,56.89,0,0,0,0-9.94"/><path class="cls-1" d="M224.84,80.45c-3.77,0-3.91.15-3.91,4V110a16,16,0,0,1-8.42,2.24c-5.26,0-8.27-2.8-8.27-7.67v-20c0-3.94-.15-4.09-4-4.09s-3.88.15-3.88,4.09v20.09c0,9.59,6,15.32,16,15.32a26.31,26.31,0,0,0,14.89-4.21c1.43-1,1.5-1.15,1.5-3V84.47c0-3.87-.15-4-3.95-4"/><path class="cls-1" d="M257.42,111.12a8,8,0,0,0-1.91.41,14.09,14.09,0,0,1-5,1c-3.31,0-5-1.84-5-5.46V87.42h9.6c3.66,0,3.8-.14,3.8-3.6s-.1-3.77-3.8-3.77h-9.6V76.21c0-3.94-.15-4.09-3.95-4.09-1.87,0-2.8,0-3.34.56s-.54,1.51-.54,3.42v30.82c0,8.16,4.47,13,12,13a22.26,22.26,0,0,0,8.72-1.75c1.21-.52,2-1,2-1.88a6.85,6.85,0,0,0-.71-2.53c-.74-1.89-1-2.67-2.17-2.67"/><path class="cls-1" d="M285.88,96.9l-.65-.14c-1.06-.23-2.84-.6-4.49-1-4.3-1.07-4.89-2.55-4.89-4,0-2.77,2.27-4.3,6.38-4.3A12.48,12.48,0,0,1,288.32,89l.73.4a3.49,3.49,0,0,0,1.72.67c.86,0,1.35-.56,2.45-2s1.47-1.91,1.47-2.64-.39-1.29-1.38-2.09h0c-2.48-1.93-6.71-3.18-10.79-3.18-8.53,0-14.25,4.7-14.25,11.71,0,5.39,3.5,9.12,10.13,10.77l5.53,1.28c3.41.86,4.86,2.09,4.86,4.14,0,2.92-2.43,4.66-6.49,4.66a15,15,0,0,1-9.16-2.81l-.48-.29A3.18,3.18,0,0,0,271,109c-.89,0-1.32.53-2.48,2l-.07.1c-1.2,1.52-1.4,1.87-1.4,2.49,0,.94.71,1.49,1.53,2.14A21.41,21.41,0,0,0,282.23,120c8.52,0,14.25-4.83,14.25-12,0-5.67-3.37-9.18-10.6-11"/><path class="cls-1" d="M329.14,104.37c-.42,5-3.67,8-8.7,8a17.24,17.24,0,0,1-8.27-2.18V90.27a16.06,16.06,0,0,1,8.09-2.45c5.05,0,8.45,3.12,8.91,8.14a46.38,46.38,0,0,1,0,8.41M337,94.89c-.83-8.9-7.36-14.64-16.65-14.64a27.22,27.22,0,0,0-14.75,4.46,2.7,2.7,0,0,0-1.28,2.53v41.7c0,3.91.15,4.06,3.95,4.06s3.92-.15,3.92-4.06V118.1A24.29,24.29,0,0,0,321,120c8.94,0,15.22-5.83,16-14.83a63.13,63.13,0,0,0,0-10.29"/><path class="cls-1" d="M365.25,81.71a29.33,29.33,0,0,0-6.81-.83c-7.85,0-12.35,4.36-12.35,12v23.46c0,3.52.15,3.66,4,3.66s3.88-.14,3.88-3.66V93.94c0-3.74,1.54-5.34,5.16-5.34a14.67,14.67,0,0,1,3.57.42,12.47,12.47,0,0,0,2.47.44c1.25,0,1.62-.85,2.19-2.78A10,10,0,0,0,368,83.9c0-1.4-1.64-1.87-2.72-2.19"/><path class="cls-1" d="M378.25,81.52c-3.74,0-3.88.15-3.88,4v30.74c0,3.56.14,3.7,3.88,3.7s3.95-.14,3.95-3.7V85.51c0-3.84-.15-4-3.95-4"/><path class="cls-1" d="M378.25,69.75c-4.15,0-4.31.16-4.31,4.34s.16,4.45,4.31,4.45,4.38-.17,4.38-4.45-.17-4.34-4.38-4.34"/><path class="cls-1" d="M408.62,80.88c-8.94,0-14.06,3.26-15,3.93A3.37,3.37,0,0,0,392.09,88v28.28c0,3.56.15,3.7,4,3.7s3.88-.14,3.88-3.7V90.7a17.66,17.66,0,0,1,8.52-2.1c5.16,0,8.24,3,8.24,8v19.62c0,3.56.15,3.7,3.92,3.7s3.91-.14,3.91-3.7v-20c0-9.94-5.64-15.42-15.89-15.42"/><path class="cls-1" d="M455.16,113.79c-.74-1.89-1.05-2.67-2.17-2.67a8,8,0,0,0-1.91.41,14.18,14.18,0,0,1-5,.94c-3.31,0-5-1.83-5-5.45V87.41h9.59c3.67,0,3.81-.13,3.81-3.59s-.11-3.77-3.81-3.77h-9.59V76.21c0-3.94-.15-4.09-4-4.09-1.86,0-2.79,0-3.34.56s-.54,1.51-.54,3.42v30.82c0,8.16,4.48,13,12,13a22.26,22.26,0,0,0,8.72-1.75c1.21-.52,1.95-1,1.95-1.88a6.89,6.89,0,0,0-.7-2.53"/><path class="cls-2" d="M119.36,96a11.88,11.88,0,0,0-11.88,11.88A11.88,11.88,0,0,1,95.6,119.79a11.88,11.88,0,1,0,11.88,11.88,11.88,11.88,0,0,1,11.88-11.88,11.88,11.88,0,0,0,0-23.75Z"/><path class="cls-2" d="M67.89,92.08A11.88,11.88,0,0,1,79.77,80.21,11.88,11.88,0,1,0,67.89,68.33,11.88,11.88,0,0,1,56,80.21,11.88,11.88,0,1,0,67.89,92.08Z"/><path class="cls-2" d="M99.56,100a11.88,11.88,0,0,1,11.88-11.88A11.88,11.88,0,1,0,99.56,76.25,11.88,11.88,0,0,1,87.68,88.12,11.87,11.87,0,0,0,75.81,100a11.88,11.88,0,0,1-11.88,11.88,11.88,11.88,0,1,0,11.88,11.87,11.88,11.88,0,0,1,11.87-11.87A11.88,11.88,0,0,0,99.56,100Z"/></svg>