<svg xmlns="http://www.w3.org/2000/svg" id="Layer_1" data-name="Layer 1" viewBox="0 0 400 194"><defs><style>.cls-1{fill:#008aff;}.cls-2{fill:#05ced8;fill-rule:evenodd;}</style></defs><path class="cls-1" d="M15,108c0-24.36,18.19-44.86,47.89-45.67a1.78,1.78,0,0,1,1.84,1.77V85A1.78,1.78,0,0,1,63,86.76c-12.37.66-21,8.72-21,24.58v53.4a1.78,1.78,0,0,1-1.78,1.77H16.78A1.78,1.78,0,0,1,15,164.74Z"></path><path class="cls-1" d="M335.27,108c0-24.36,18.19-44.86,47.89-45.67A1.78,1.78,0,0,1,385,64.12V85a1.78,1.78,0,0,1-1.69,1.77c-12.37.66-21,8.72-21,24.58v53.4a1.78,1.78,0,0,1-1.78,1.77H337.05a1.78,1.78,0,0,1-1.78-1.77Z"></path><path class="cls-1" d="M76.45,62.32h23.68a1.78,1.78,0,0,1,1.77,1.78V164.74a1.77,1.77,0,0,1-1.77,1.77H76.45a1.78,1.78,0,0,1-1.78-1.77V64.1A1.78,1.78,0,0,1,76.45,62.32Zm-1.3-23.2a13.62,13.62,0,1,1,27.23,0,13.62,13.62,0,0,1-27.23,0Z"></path><path class="cls-1" d="M192.59,62.32V19.58a1.78,1.78,0,0,1,1.78-1.78h23.92a1.78,1.78,0,0,1,1.77,1.78V117c0,29.13-21.55,51.86-54.7,51.86s-54.22-23.44-54.22-52.57,20.36-54.22,53.51-54Zm0,25.58H166.78c-19.41,0-28.18,14.44-28.18,27.7s7.11,27.71,26.53,27.71,27.46-13.74,27.46-27Z"></path><path class="cls-2" d="M297,95.24a19.63,19.63,0,0,0-36.17,0ZM278.89,68a34.91,34.91,0,0,1,34.05,42.52H260.8a19.63,19.63,0,0,0,30.42,7.63h19A34.89,34.89,0,1,1,278.89,68Zm-36.66-1.77a51.85,51.85,0,0,1,73.32,73.32L278.89,176.2l-36.66-36.67A51.84,51.84,0,0,1,242.23,66.21Z"></path></svg>