<svg xmlns="http://www.w3.org/2000/svg" viewBox="0 0 280 41.53">
	<defs>
		<style>.cls-1{fill:#fff}.cls-2{fill:#fff}</style>
	</defs>
	<path class="cls-1" d="M69.31 20.78L66.16 8.14 63 20.78h-4.12L54 2.22h4.08L61 14.85l3.27-12.63h3.82L71.26 15l3-12.79h4l-5 18.56zM79.79 7.72a9.12 9.12 0 0 1 1.79-3.11 8.13 8.13 0 0 1 2.87-2.08 10.23 10.23 0 0 1 7.69 0A8.18 8.18 0 0 1 95 4.61a9.12 9.12 0 0 1 1.79 3.11 11.45 11.45 0 0 1 .63 3.86 11.11 11.11 0 0 1-.63 3.78A8.84 8.84 0 0 1 95 18.41a8.37 8.37 0 0 1-2.86 2.05 10.36 10.36 0 0 1-7.69 0 8.31 8.31 0 0 1-2.87-2.05 8.84 8.84 0 0 1-1.79-3.05 11.11 11.11 0 0 1-.63-3.78 11.45 11.45 0 0 1 .63-3.86zm3.73 6.13a6.06 6.06 0 0 0 .87 2A4.53 4.53 0 0 0 86 17.26a5.43 5.43 0 0 0 4.68 0 4.53 4.53 0 0 0 1.56-1.42 6.06 6.06 0 0 0 .87-2 9.47 9.47 0 0 0 .27-2.27 10.25 10.25 0 0 0-.27-2.37 6.23 6.23 0 0 0-.87-2 4.47 4.47 0 0 0-1.56-1.43 5.43 5.43 0 0 0-4.68 0 4.47 4.47 0 0 0-1.56 1.43 6.23 6.23 0 0 0-.87 2 10.25 10.25 0 0 0-.27 2.37 9.47 9.47 0 0 0 .22 2.28zM105.68 2.22L110 15l4.11-12.76h5.74v18.54h-3.82V7.63l-4.55 13.15h-3.15l-4.55-13v13h-3.84V2.22zM137.14 2.22v3.43h-9.8v4h9v3.15h-9v4.55h10v3.43h-14.08V2.22zM143.9 2.22l7.75 12.45V2.22h3.82v18.56h-4.08l-7.67-12.43h-.05v12.43h-3.82V2.22zM162.52 2.22v4a4.34 4.34 0 0 1-.25 1.62 4.13 4.13 0 0 1-.77 1.32 4.22 4.22 0 0 1-1.18.95 4.27 4.27 0 0 1-1.49.48V8.85a2.31 2.31 0 0 0 1.35-1 3.41 3.41 0 0 0 .36-1.63h-1.71v-4zM168.94 16.2a3 3 0 0 0 .9 1.06 3.84 3.84 0 0 0 1.31.6 6.17 6.17 0 0 0 1.56.19 8.09 8.09 0 0 0 1.17-.09 4.08 4.08 0 0 0 1.17-.35 2.39 2.39 0 0 0 .91-.72 1.8 1.8 0 0 0 .37-1.15 1.62 1.62 0 0 0-.49-1.23 3.69 3.69 0 0 0-1.26-.77 11.8 11.8 0 0 0-1.76-.55c-.66-.16-1.33-.33-2-.52a17 17 0 0 1-2-.64 6.86 6.86 0 0 1-1.77-1 4.59 4.59 0 0 1-1.26-1.5 4.55 4.55 0 0 1-.48-2.17 4.83 4.83 0 0 1 .61-2.48 5.5 5.5 0 0 1 1.6-1.76 6.93 6.93 0 0 1 2.23-1 9.76 9.76 0 0 1 2.5-.33 11.59 11.59 0 0 1 2.75.31 7 7 0 0 1 2.38 1A5.47 5.47 0 0 1 179 5a5.7 5.7 0 0 1 .61 2.75h-4a3.18 3.18 0 0 0-.35-1.38 2.27 2.27 0 0 0-.79-.86 3.21 3.21 0 0 0-1.13-.44A6.77 6.77 0 0 0 172 5a4.75 4.75 0 0 0-1 .1 2.74 2.74 0 0 0-.9.36 2.19 2.19 0 0 0-.66.66 1.64 1.64 0 0 0-.26 1 1.68 1.68 0 0 0 .21.89 1.84 1.84 0 0 0 .81.62 10.56 10.56 0 0 0 1.69.57c.72.19 1.66.44 2.83.73.34.07.82.2 1.44.38a6.92 6.92 0 0 1 1.83.87 5.45 5.45 0 0 1 1.57 1.6 4.49 4.49 0 0 1 .67 2.56 5.61 5.61 0 0 1-.5 2.36 5.16 5.16 0 0 1-1.47 1.89 6.93 6.93 0 0 1-2.41 1.23 11.3 11.3 0 0 1-3.34.45 11.76 11.76 0 0 1-3-.38 7.66 7.66 0 0 1-2.51-1.25 5.82 5.82 0 0 1-1.75-2.06 6 6 0 0 1-.63-3h3.95a3.45 3.45 0 0 0 .37 1.62zM202.45 2.22v3.43h-9v4.29h7.78v3.17h-7.78v7.67h-4.05V2.22zM204.38 7.72a9.12 9.12 0 0 1 1.79-3.11 8.08 8.08 0 0 1 2.88-2.08 10.21 10.21 0 0 1 7.68 0 8.09 8.09 0 0 1 2.86 2.08 9.12 9.12 0 0 1 1.79 3.11 11.45 11.45 0 0 1 .63 3.86 11.11 11.11 0 0 1-.63 3.78 8.84 8.84 0 0 1-1.79 3.05 8.27 8.27 0 0 1-2.86 2.05 10.33 10.33 0 0 1-7.68 0 8.26 8.26 0 0 1-2.88-2.05 8.84 8.84 0 0 1-1.79-3.05 11.11 11.11 0 0 1-.63-3.78 11.45 11.45 0 0 1 .63-3.86zm3.73 6.13a6.06 6.06 0 0 0 .87 2 4.53 4.53 0 0 0 1.56 1.42 5.43 5.43 0 0 0 4.68 0 4.53 4.53 0 0 0 1.56-1.42 6.06 6.06 0 0 0 .87-2 9.47 9.47 0 0 0 .27-2.27 10.25 10.25 0 0 0-.27-2.37 6.23 6.23 0 0 0-.87-2 4.47 4.47 0 0 0-1.56-1.43 5.43 5.43 0 0 0-4.68 0A4.47 4.47 0 0 0 209 7.17a6.23 6.23 0 0 0-.87 2 10.25 10.25 0 0 0-.27 2.37 9.47 9.47 0 0 0 .25 2.31zM234.54 2.22a6 6 0 0 1 2.25.4 5.29 5.29 0 0 1 1.71 1.1 5 5 0 0 1 1.1 1.63 5.26 5.26 0 0 1 .37 2 5.55 5.55 0 0 1-.69 2.83A4.29 4.29 0 0 1 237 12v.06a3.07 3.07 0 0 1 1.25.63 3.65 3.65 0 0 1 .81 1 4.42 4.42 0 0 1 .45 1.28 11.39 11.39 0 0 1 .2 1.41v1c0 .36.05.8.09 1.22a7.07 7.07 0 0 0 .21 1.18 2.68 2.68 0 0 0 .43 1h-4.08a7 7 0 0 1-.42-2.11c-.05-.81-.13-1.59-.23-2.33a3.7 3.7 0 0 0-.89-2.14 3 3 0 0 0-2.21-.67h-4.08v7.25h-4.08V2.22zm-1.46 8.39a3.07 3.07 0 0 0 2.11-.62 2.59 2.59 0 0 0 .7-2 2.47 2.47 0 0 0-.7-2 3.13 3.13 0 0 0-2.11-.61h-4.47v5.22zM256.69 19.36a10.2 10.2 0 0 1-11.66 0q-2.03-1.81-2.03-5.6V2.22h4v11.54a9 9 0 0 0 .13 1.48 2.89 2.89 0 0 0 1.71 2.2 4.73 4.73 0 0 0 2 .35 3.81 3.81 0 0 0 3-1 4.62 4.62 0 0 0 .83-3.06V2.22h4.09v11.54c.04 2.51-.67 4.38-2.07 5.6zM267.79 2.22L272.13 15h.06l4.1-12.76H282v18.54h-3.82V7.63h-.05l-4.55 13.15h-3.15l-4.55-13h-.05v13h-3.82V2.22z" transform="translate(-2.4 -.49)"/>
	<path class="cls-2" d="M62 28.71v.9h-6v4h5.3v.9H56v5.27h-1V28.71zM63.22 32.06a5.56 5.56 0 0 1 1-1.83A4.69 4.69 0 0 1 65.83 29a5.32 5.32 0 0 1 2.29-.47 5.24 5.24 0 0 1 2.28.47 4.79 4.79 0 0 1 1.6 1.23 5.36 5.36 0 0 1 1 1.83 7.4 7.4 0 0 1 0 4.37 5.18 5.18 0 0 1-1 1.83 4.73 4.73 0 0 1-1.63 1.26 5.1 5.1 0 0 1-2.28.48 5.18 5.18 0 0 1-2.29-.48 4.64 4.64 0 0 1-1.63-1.26 5.37 5.37 0 0 1-1-1.83 7.62 7.62 0 0 1 0-4.37zm1 4a4.66 4.66 0 0 0 .75 1.57 3.67 3.67 0 0 0 1.29 1.11 4 4 0 0 0 1.89.41A3.92 3.92 0 0 0 70 38.7a3.67 3.67 0 0 0 1.29-1.11A4.64 4.64 0 0 0 72 36a6.63 6.63 0 0 0 .24-1.77 6.72 6.72 0 0 0-.24-1.77 4.73 4.73 0 0 0-.74-1.55A3.67 3.67 0 0 0 70 29.8a3.92 3.92 0 0 0-1.88-.42 4 4 0 0 0-1.89.42 3.67 3.67 0 0 0-1.29 1.11 4.75 4.75 0 0 0-.75 1.55 6.72 6.72 0 0 0-.19 1.79 6.63 6.63 0 0 0 .19 1.75zM80.2 28.71a5 5 0 0 1 1.29.17 3.33 3.33 0 0 1 1.07.52 2.68 2.68 0 0 1 .73.9 2.93 2.93 0 0 1 .27 1.3 3.08 3.08 0 0 1-.56 1.82 2.51 2.51 0 0 1-1.62 1 2.33 2.33 0 0 1 .9.29 1.74 1.74 0 0 1 .58.53 2.32 2.32 0 0 1 .33.75 5.23 5.23 0 0 1 .13.92v.69q0 .4.06.81a6.33 6.33 0 0 0 .15.78 1.54 1.54 0 0 0 .27.56h-1.11a1.5 1.5 0 0 1-.15-.38 3.4 3.4 0 0 1-.07-.46v-.48-.4c0-.39-.06-.78-.1-1.17a3.32 3.32 0 0 0-.3-1 1.83 1.83 0 0 0-.65-.73 1.92 1.92 0 0 0-1.17-.25h-4v4.91h-1.12V28.71zM80.12 34a2.76 2.76 0 0 0 .91-.15 2.44 2.44 0 0 0 .76-.42 2.16 2.16 0 0 0 .52-.68 2 2 0 0 0 .19-.91 2.18 2.18 0 0 0-.58-1.61 2.48 2.48 0 0 0-1.8-.59h-3.94V34zM97.66 28.71v.9H93.8v10.17h-1V29.61h-3.89v-.9zM99.91 28.71v4.81h6.57v-4.81h1.06v11.07h-1.06v-5.36h-6.57v5.36h-1V28.71zM117.57 28.71v.9H111v4h6.17v.9H111v4.37h6.66v.9h-7.72V28.71zM131.38 28.71v.9h-6.59v4H131v.9h-6.17v4.37h6.66v.9h-7.72V28.71zM140.71 30.92a3.26 3.26 0 0 0-.77-.84 3.46 3.46 0 0 0-1-.52 3.69 3.69 0 0 0-1.15-.18 3.94 3.94 0 0 0-1.89.42 3.79 3.79 0 0 0-1.3 1.11 4.93 4.93 0 0 0-.74 1.55 6.72 6.72 0 0 0-.24 1.79 6.63 6.63 0 0 0 .24 1.77 4.84 4.84 0 0 0 .74 1.57 3.79 3.79 0 0 0 1.3 1.11 3.94 3.94 0 0 0 1.89.41 3.45 3.45 0 0 0 1.39-.27 3.3 3.3 0 0 0 1.07-.76A4 4 0 0 0 141 37a4.84 4.84 0 0 0 .36-1.38h1a5.86 5.86 0 0 1-.48 1.84 4.53 4.53 0 0 1-1 1.39 4 4 0 0 1-1.39.89 5 5 0 0 1-1.77.31 5.18 5.18 0 0 1-2.29-.48 4.55 4.55 0 0 1-1.63-1.26 5.2 5.2 0 0 1-1-1.83 7.4 7.4 0 0 1 0-4.37 5.38 5.38 0 0 1 1-1.83 4.6 4.6 0 0 1 1.69-1.28 5.59 5.59 0 0 1 3.83-.24 4.59 4.59 0 0 1 1.36.69 4.13 4.13 0 0 1 1 1.13 3.91 3.91 0 0 1 .52 1.53h-1.06a3.37 3.37 0 0 0-.43-1.19zM143.88 32.06a5.56 5.56 0 0 1 1-1.83A4.64 4.64 0 0 1 146.5 29a5.77 5.77 0 0 1 4.56 0 4.79 4.79 0 0 1 1.63 1.28 5.36 5.36 0 0 1 1 1.83 7.4 7.4 0 0 1 0 4.37 5.18 5.18 0 0 1-1 1.83 4.73 4.73 0 0 1-1.63 1.26 5.65 5.65 0 0 1-4.56 0 4.59 4.59 0 0 1-1.64-1.26 5.37 5.37 0 0 1-1-1.83 7.62 7.62 0 0 1 0-4.37zm1 4a4.66 4.66 0 0 0 .75 1.57 3.67 3.67 0 0 0 1.29 1.11 4.56 4.56 0 0 0 3.78 0 3.72 3.72 0 0 0 1.3-1.15 4.66 4.66 0 0 0 .7-1.59 6.63 6.63 0 0 0 .24-1.77 6.72 6.72 0 0 0-.24-1.79 4.75 4.75 0 0 0-.75-1.55 3.72 3.72 0 0 0-1.28-1.11 4.46 4.46 0 0 0-3.78 0 3.67 3.67 0 0 0-1.29 1.11 4.75 4.75 0 0 0-.75 1.55 6.72 6.72 0 0 0-.24 1.79 6.63 6.63 0 0 0 .24 1.77zM157 28.71l6.45 9.37v-9.37h1v11.07h-1.17l-6.45-9.36v9.36h-1.06V28.71zM166.59 32.06a5.38 5.38 0 0 1 1-1.83A4.69 4.69 0 0 1 169.2 29a5.32 5.32 0 0 1 2.29-.47 5.24 5.24 0 0 1 2.28.47 4.66 4.66 0 0 1 1.62 1.28 5.38 5.38 0 0 1 1 1.83 7.4 7.4 0 0 1 0 4.37 5.2 5.2 0 0 1-1 1.83 4.6 4.6 0 0 1-1.62 1.26 5.1 5.1 0 0 1-2.28.48 5.18 5.18 0 0 1-2.29-.48 4.64 4.64 0 0 1-1.63-1.26 5.2 5.2 0 0 1-1-1.83 7.62 7.62 0 0 1 0-4.37zm1 4a4.84 4.84 0 0 0 .74 1.57 3.79 3.79 0 0 0 1.3 1.11 4 4 0 0 0 1.89.41 3.92 3.92 0 0 0 1.88-.41 3.85 3.85 0 0 0 1.29-1.11 4.84 4.84 0 0 0 .71-1.63 6.63 6.63 0 0 0 .24-1.77 6.72 6.72 0 0 0-.24-1.79 4.93 4.93 0 0 0-.74-1.55 3.85 3.85 0 0 0-1.29-1.11 3.92 3.92 0 0 0-1.88-.42 4 4 0 0 0-1.89.42 3.79 3.79 0 0 0-1.3 1.11 4.93 4.93 0 0 0-.74 1.55 6.72 6.72 0 0 0-.24 1.79 6.63 6.63 0 0 0 .24 1.77zM180 28.71l3.68 9.71 3.81-9.71h1.55v11.07H188v-9.56l-3.79 9.56h-1l-3.64-9.56v9.56h-1.06V28.71zM190.12 28.71h1.24l3.64 5.62 3.63-5.62h1.26l-4.38 6.51v4.56h-1v-4.56zM210.11 39.55a3.74 3.74 0 0 1-1.81.45 4.3 4.3 0 0 1-1.32-.2 3.17 3.17 0 0 1-1.07-.59 2.71 2.71 0 0 1-.7-1 3.3 3.3 0 0 1-.26-1.34 2.45 2.45 0 0 1 .25-1.08 3.78 3.78 0 0 1 .64-.9 6.2 6.2 0 0 1 .88-.73 8.84 8.84 0 0 1 .95-.57l-.48-.6a5.39 5.39 0 0 1-.43-.63 3.89 3.89 0 0 1-.33-.68 2.38 2.38 0 0 1-.13-.76 2.11 2.11 0 0 1 .2-.92 2 2 0 0 1 .52-.71 2.49 2.49 0 0 1 .78-.45 2.74 2.74 0 0 1 1.9 0 2.49 2.49 0 0 1 .78.45 2.2 2.2 0 0 1 .52.71 2.26 2.26 0 0 1 .19.92 2.18 2.18 0 0 1-.19.93 2.87 2.87 0 0 1-.48.76 5.16 5.16 0 0 1-.69.63c-.26.19-.53.37-.81.55l2.42 2.91a2.83 2.83 0 0 0 .26-.81 7.43 7.43 0 0 0 .06-1h1a7 7 0 0 1-.13 1.21 4.72 4.72 0 0 1-.52 1.44l1.89 2.24h-1.23l-1.17-1.44a4.81 4.81 0 0 1-1.49 1.21zm-2.72-4.81a4.3 4.3 0 0 0-.73.61 3.2 3.2 0 0 0-.53.75 2.06 2.06 0 0 0-.2.91 2 2 0 0 0 .2.88 2.31 2.31 0 0 0 .54.7 2.51 2.51 0 0 0 .76.45 2.74 2.74 0 0 0 .9.15 2.6 2.6 0 0 0 1.5-.45 4.46 4.46 0 0 0 1.17-1.13l-2.76-3.35c-.32.15-.58.31-.85.48zm.32-4.84a1.3 1.3 0 0 0-.43 1.06 1.61 1.61 0 0 0 .12.6 3.7 3.7 0 0 0 .31.59c.13.19.26.37.41.55a5.58 5.58 0 0 0 .4.49l.6-.4a3.64 3.64 0 0 0 .55-.49 2.73 2.73 0 0 0 .4-.6 1.78 1.78 0 0 0 .15-.74 1.3 1.3 0 0 0-.43-1.06 1.68 1.68 0 0 0-2.08 0zM220.31 37.56a2.41 2.41 0 0 0 .77.92 3.2 3.2 0 0 0 1.16.49 6.45 6.45 0 0 0 1.42.14 4.19 4.19 0 0 0 1-.12 3 3 0 0 0 .95-.4 2.32 2.32 0 0 0 .74-.69 1.83 1.83 0 0 0 .29-1 1.53 1.53 0 0 0-.21-.81 1.84 1.84 0 0 0-.54-.57 3 3 0 0 0-.74-.38 6.43 6.43 0 0 0-.79-.24l-2.46-.61a6.46 6.46 0 0 1-.94-.31 2.82 2.82 0 0 1-.8-.49 2.36 2.36 0 0 1-.55-.76 2.6 2.6 0 0 1-.21-1.1 3.3 3.3 0 0 1 .16-1 2.51 2.51 0 0 1 .58-1 3.28 3.28 0 0 1 1.17-.81 4.57 4.57 0 0 1 1.91-.34 5.35 5.35 0 0 1 1.56.22 3.7 3.7 0 0 1 1.3.65 3.11 3.11 0 0 1 .89 1.08 3.06 3.06 0 0 1 .34 1.49h-1.11a2.6 2.6 0 0 0-.28-1.11 2.68 2.68 0 0 0-.67-.79 3 3 0 0 0-.94-.48 3.86 3.86 0 0 0-1.13-.16 4.57 4.57 0 0 0-1.05.12 2.49 2.49 0 0 0-.88.37 1.88 1.88 0 0 0-.61.67 2.08 2.08 0 0 0-.23 1 1.62 1.62 0 0 0 .13.68 1.44 1.44 0 0 0 .36.48 1.87 1.87 0 0 0 .54.33 4 4 0 0 0 .64.2l2.7.67a7.62 7.62 0 0 1 1.11.38 3.48 3.48 0 0 1 .91.56 2.37 2.37 0 0 1 .62.81 2.73 2.73 0 0 1 .23 1.16v.5a2.8 2.8 0 0 1-.19.66 3.51 3.51 0 0 1-.42.7 2.61 2.61 0 0 1-.74.64 4.2 4.2 0 0 1-1.17.47 6.8 6.8 0 0 1-1.68.18 7 7 0 0 1-1.81-.23 4 4 0 0 1-1.43-.69 3 3 0 0 1-.9-1.19 4 4 0 0 1-.27-1.75h1.05a3.16 3.16 0 0 0 .22 1.46zM229.21 32.06a5.38 5.38 0 0 1 1-1.83 4.69 4.69 0 0 1 1.61-1.23 5.32 5.32 0 0 1 2.29-.47 5.24 5.24 0 0 1 2.28.47 4.66 4.66 0 0 1 1.61 1.23 5.38 5.38 0 0 1 1 1.83 7.4 7.4 0 0 1 0 4.37 5.2 5.2 0 0 1-1 1.83 4.6 4.6 0 0 1-1.62 1.26 5.1 5.1 0 0 1-2.28.48 5.18 5.18 0 0 1-2.29-.48 4.64 4.64 0 0 1-1.63-1.26 5.2 5.2 0 0 1-1-1.83 7.62 7.62 0 0 1 0-4.37zm1 4a4.84 4.84 0 0 0 .74 1.57 3.79 3.79 0 0 0 1.3 1.11 4 4 0 0 0 1.89.41 3.92 3.92 0 0 0 1.86-.45 3.85 3.85 0 0 0 1.29-1.11A4.84 4.84 0 0 0 238 36a6.63 6.63 0 0 0 .24-1.77 6.72 6.72 0 0 0-.24-1.79 4.93 4.93 0 0 0-.74-1.55A3.85 3.85 0 0 0 236 29.8a3.92 3.92 0 0 0-1.88-.42 4 4 0 0 0-1.89.42 3.79 3.79 0 0 0-1.3 1.11 4.93 4.93 0 0 0-.74 1.55 6.72 6.72 0 0 0-.24 1.79 6.63 6.63 0 0 0 .23 1.75zM248.75 30.92a3.13 3.13 0 0 0-.78-.84 3.34 3.34 0 0 0-1-.52 3.64 3.64 0 0 0-1.15-.18 4 4 0 0 0-1.89.42 3.67 3.67 0 0 0-1.29 1.11 4.75 4.75 0 0 0-.75 1.55 6.72 6.72 0 0 0-.24 1.79 6.63 6.63 0 0 0 .24 1.77 4.66 4.66 0 0 0 .75 1.57 3.67 3.67 0 0 0 1.29 1.11 4 4 0 0 0 1.89.41 3.5 3.5 0 0 0 1.4-.27 3.42 3.42 0 0 0 1.07-.76A4 4 0 0 0 249 37a4.53 4.53 0 0 0 .36-1.38h1a5.86 5.86 0 0 1-.48 1.84 4.21 4.21 0 0 1-1 1.39 4 4 0 0 1-1.39.89 5 5 0 0 1-1.77.31 5.18 5.18 0 0 1-2.29-.48 4.64 4.64 0 0 1-1.63-1.26 5.37 5.37 0 0 1-1-1.83 7.62 7.62 0 0 1 0-4.37 5.56 5.56 0 0 1 1-1.83 4.69 4.69 0 0 1 1.72-1.28 5.59 5.59 0 0 1 3.83-.24 4.77 4.77 0 0 1 1.37.69 3.94 3.94 0 0 1 1 1.13 3.75 3.75 0 0 1 .52 1.53h-1a3.84 3.84 0 0 0-.49-1.19zM253.31 28.71v11.07h-1.05V28.71zM263.42 28.71v.9h-6.59v4H263v.9h-6.17v4.37h6.67v.9h-7.72V28.71zM272.7 28.71v.9h-3.86v10.17h-1V29.61H264v-.9z" transform="translate(-2.4 -.49)"/>
	<path class="cls-2" d="M272.64 28.71h1.24l3.64 5.62 3.63-5.62h1.26L278 35.22v4.56h-1v-4.56z" transform="translate(-2.4 -.49)"/>
	<path d="M20.19 38.25a14 14 0 0 1-14-14.11v-5.78a14 14 0 0 1 14-14.11h6.63a14 14 0 0 1 14 14.11v5.78a14 14 0 0 1-14 14.11zM29.65.49H17.36A15 15 0 0 0 2.4 15.6v11.29A15 15 0 0 0 17.36 42h12.29a15 15 0 0 0 15-15.12V15.6a15 15 0 0 0-15-15.11" transform="translate(-2.4 -.49)" fill="#fff"/>
	<path d="M24.3 6.25h-1.59a14.52 14.52 0 0 0-14.45 14.6v.8a14.53 14.53 0 0 0 14.45 14.6h1.59a14.53 14.53 0 0 0 14.45-14.6v-.8A14.52 14.52 0 0 0 24.3 6.25z" transform="translate(-2.4 -.49)" fill="#fff"/>
</svg>